<svg id="ethereum" xmlns="http://www.w3.org/2000/svg" width="110" height="78" viewBox="0 0 110 78">
  <defs>
    <style>
      .cls-1 {
        fill: #3b3b3b;
      }

      .cls-2 {
        opacity: 0.6;
      }

      .cls-3 {
        opacity: 0.45;
      }

      .cls-4 {
        opacity: 0.8;
      }
    </style>
  </defs>
  <path id="Path_117" data-name="Path 117" class="cls-1" d="M9.933,72.34a.455.455,0,0,1-.447.456H.905c.218,2.218,1.81,4.245,4.056,4.245A3.959,3.959,0,0,0,8.49,75.146a.419.419,0,0,1,.55-.18.452.452,0,0,1,.183.635,4.789,4.789,0,0,1-4.274,2.35c-2.887,0-4.949-2.7-4.949-5.6s2.062-5.6,4.949-5.6S9.933,69.451,9.933,72.34ZM9.017,71.9c-.183-2.218-1.81-4.245-4.056-4.245S1.123,69.679.905,71.9Zm11.331-4.916a.462.462,0,0,1,.435.456.439.439,0,0,1-.435.456h-2.3V77.34a.454.454,0,0,1-.435.456.462.462,0,0,1-.435-.456V67.892H14.963a.438.438,0,0,1-.435-.456.453.453,0,0,1,.435-.456h2.211V63.516a.449.449,0,0,1,.344-.456.432.432,0,0,1,.516.444v3.477Zm14.046,4.568v5.719a.461.461,0,0,1-.435.456.438.438,0,0,1-.435-.456V71.549c0-1.931-1.043-3.861-3.1-3.861-2.647,0-3.781,2.41-3.62,4.892,0,.06.034.348.034.384v4.293a.449.449,0,0,1-.344.456.432.432,0,0,1-.516-.444V58.456A.453.453,0,0,1,26.409,58a.462.462,0,0,1,.435.456V69.1a4.126,4.126,0,0,1,3.6-2.314c2.509,0,3.953,2.314,3.953,4.76Zm15.387.791a.455.455,0,0,1-.447.456H40.753c.218,2.218,1.81,4.245,4.056,4.245a3.959,3.959,0,0,0,3.529-1.895.419.419,0,0,1,.55-.18.452.452,0,0,1,.183.635,4.789,4.789,0,0,1-4.273,2.35c-2.887,0-4.95-2.7-4.95-5.6s2.062-5.6,4.95-5.6S49.781,69.451,49.781,72.34Zm-.917-.444c-.183-2.218-1.81-4.245-4.056-4.245s-3.838,2.026-4.056,4.245Zm11.457-4.5a.427.427,0,0,1-.4.48c-2.521.384-3.655,2.542-3.655,5.048v4.292a.449.449,0,0,1-.344.456.432.432,0,0,1-.516-.444v-9.8a.449.449,0,0,1,.344-.456.432.432,0,0,1,.516.444v1.99a4.559,4.559,0,0,1,3.6-2.446A.468.468,0,0,1,60.322,67.4Zm14.1,4.94a.455.455,0,0,1-.447.456H65.4c.218,2.218,1.81,4.245,4.056,4.245a3.959,3.959,0,0,0,3.529-1.895.419.419,0,0,1,.55-.18.452.452,0,0,1,.183.635,4.789,4.789,0,0,1-4.273,2.35c-2.887,0-4.95-2.7-4.95-5.6s2.062-5.6,4.95-5.6S74.414,69.451,74.426,72.34ZM73.5,71.9c-.183-2.218-1.81-4.245-4.056-4.245S65.6,69.679,65.386,71.9Zm14.78-4.388v9.82a.461.461,0,0,1-.435.456.438.438,0,0,1-.435-.456v-1.87A4.047,4.047,0,0,1,83.843,78c-2.555,0-3.964-2.314-3.964-4.76V67.484a.436.436,0,1,1,.871,0V73.24c0,1.931,1.043,3.861,3.1,3.861,2.887,0,3.563-2.83,3.563-5.947V67.484a.436.436,0,0,1,.55-.432A.463.463,0,0,1,88.277,67.508Zm21.723,4v5.755a.461.461,0,0,1-.435.456.438.438,0,0,1-.436-.456V71.513c0-1.93-1.042-3.825-3.1-3.825-2.577,0-3.563,2.89-3.563,5.144v4.437a.461.461,0,0,1-.435.456.438.438,0,0,1-.436-.456V71.513c0-1.93-1.042-3.825-3.1-3.825-2.612,0-3.689,2.158-3.6,5.012,0,.06.034.192,0,.228v4.328a.449.449,0,0,1-.344.456.432.432,0,0,1-.516-.444V67.436a.449.449,0,0,1,.344-.456.432.432,0,0,1,.516.444v1.643a4.09,4.09,0,0,1,3.6-2.278,3.842,3.842,0,0,1,3.654,2.866,4.278,4.278,0,0,1,3.873-2.866C108.556,66.789,110,69.067,110,71.513Z"/>
  <path id="Path_118" data-name="Path 118" class="cls-2" d="M55,34l14-9.05L55,18,41,24.95Z"/>
  <path id="Path_119" data-name="Path 119" class="cls-3" d="M55,18.2V0L41,25.063,55,34Z"/>
  <path id="Path_120" data-name="Path 120" class="cls-4" d="M55,34l14-8.937L55,0V34Z"/>
  <path id="Path_121" data-name="Path 121" class="cls-3" d="M55,36.39,41,28,55,48Z"/>
  <path id="Path_122" data-name="Path 122" class="cls-4" d="M69,28,55,36.39V48Z"/>
</svg>
