<svg id="polygon" xmlns="http://www.w3.org/2000/svg" width="245.023" height="51.942" viewBox="0 0 245.023 51.942">
  <defs>
    <style>
      .cls-1 {
        fill: #212121;
      }

      .cls-2 {
        fill: #8247e5;
      }
    </style>
  </defs>
  <path id="Path_109" data-name="Path 109" class="cls-1" d="M112.919,17.927a9.038,9.038,0,0,1,3.174,4.063,15.237,15.237,0,0,1,1.229,6.334,13.278,13.278,0,0,1-1.331,6.214,8.277,8.277,0,0,1-3.584,3.943,10.036,10.036,0,0,1-5.325,1.434,7.317,7.317,0,0,1-3.175-.717,6.422,6.422,0,0,1-2.663-1.912V49.715H95.3V16.971h5.12l.512,2.629a10.452,10.452,0,0,1,7.271-3.227A7.351,7.351,0,0,1,112.919,17.927Zm-3.277,14.818a5.981,5.981,0,0,0,1.536-4.3,6.972,6.972,0,0,0-1.434-4.422,4.2,4.2,0,0,0-3.482-1.673,4.94,4.94,0,0,0-2.97.837,5.238,5.238,0,0,0-1.945,2.39v5.378a5.063,5.063,0,0,0,1.638,2.51,4.711,4.711,0,0,0,2.868.956A5.026,5.026,0,0,0,109.642,32.745Z"/>
  <path id="Path_110" data-name="Path 110" class="cls-1" d="M120.8,22.107a10.342,10.342,0,0,1,3.789-4.063,10.858,10.858,0,0,1,5.53-1.554,9.808,9.808,0,0,1,5.53,1.554,10.4,10.4,0,0,1,3.687,4.183,12.631,12.631,0,0,1,1.331,5.975,12.63,12.63,0,0,1-1.331,5.975,9.7,9.7,0,0,1-3.687,4.183,10.577,10.577,0,0,1-5.53,1.554,10.772,10.772,0,0,1-5.53-1.434,9.6,9.6,0,0,1-3.789-4.063,14.679,14.679,0,0,1-1.331-6.214A14.532,14.532,0,0,1,120.8,22.107Zm6.042,10.4a3.721,3.721,0,0,0,3.277,1.673A4.013,4.013,0,0,0,133.4,32.5a7.168,7.168,0,0,0,1.229-4.3,6.924,6.924,0,0,0-1.229-4.3,4.007,4.007,0,0,0-3.379-1.793,4.154,4.154,0,0,0-3.277,1.673,7.544,7.544,0,0,0-1.229,4.422A6.8,6.8,0,0,0,126.846,32.5Z"/>
  <path id="Path_111" data-name="Path 111" class="cls-1" d="M150.3,0V39.317h-5.939V0Z"/>
  <path id="Path_112" data-name="Path 112" class="cls-1" d="M174.67,17.567,162.586,49.833h-5.735l4.506-11.592-8.6-20.674h6.759l4.915,12.906,4.916-12.906Z"/>
  <path id="Path_113" data-name="Path 113" class="cls-1" d="M197.4,17.566v21.75a10.637,10.637,0,0,1-1.537,5.617,10.82,10.82,0,0,1-4.1,3.944,11.42,11.42,0,0,1-5.632,1.434,13.115,13.115,0,0,1-3.994-.6,17.044,17.044,0,0,1-2.765-1.434,19.487,19.487,0,0,1-2.56-2.27l3.482-4.78a10.206,10.206,0,0,0,2.56,2.151,6.424,6.424,0,0,0,3.174.836,5.772,5.772,0,0,0,3.79-1.314,4.613,4.613,0,0,0,1.535-3.7V36.089a7.183,7.183,0,0,1-2.662,2.749,8.381,8.381,0,0,1-4.3,1.075,7.756,7.756,0,0,1-4.711-1.554,10.8,10.8,0,0,1-3.482-4.183,13.847,13.847,0,0,1-1.331-5.856,12.966,12.966,0,0,1,1.331-5.975,11.408,11.408,0,0,1,3.584-4.3A7.47,7.47,0,0,1,184.4,16.49a11.083,11.083,0,0,1,4.1.717,6.109,6.109,0,0,1,2.765,2.031l.615-1.673ZM191.361,30.95V25.573a4.942,4.942,0,0,0-1.945-2.51,5.667,5.667,0,0,0-3.175-.956,4.971,4.971,0,0,0-3.686,1.673,5.981,5.981,0,0,0-1.537,4.3,6.706,6.706,0,0,0,1.537,4.422,4.7,4.7,0,0,0,3.686,1.793A5.588,5.588,0,0,0,191.361,30.95Z"/>
  <path id="Path_114" data-name="Path 114" class="cls-1" d="M202.321,22.109a10.665,10.665,0,0,1,3.789-4.183,10.855,10.855,0,0,1,5.53-1.554,9.81,9.81,0,0,1,5.53,1.554,10.394,10.394,0,0,1,3.686,4.183,13.966,13.966,0,0,1,1.332,5.975,12.618,12.618,0,0,1-1.332,5.975,9.092,9.092,0,0,1-3.686,4.183,10.575,10.575,0,0,1-5.53,1.554,10.769,10.769,0,0,1-5.53-1.434,9.594,9.594,0,0,1-3.789-4.063,13.453,13.453,0,0,1-1.332-6.334A12.805,12.805,0,0,1,202.321,22.109Zm5.939,10.4a3.722,3.722,0,0,0,3.277,1.673,4.012,4.012,0,0,0,3.277-1.673,7.16,7.16,0,0,0,1.229-4.3,6.917,6.917,0,0,0-1.229-4.3,4.011,4.011,0,0,0-3.277-1.673A4.157,4.157,0,0,0,208.26,23.9a6.582,6.582,0,0,0-1.331,4.3A8.332,8.332,0,0,0,208.26,32.506Z"/>
  <path id="Path_115" data-name="Path 115" class="cls-1" d="M243.182,18.283a6.615,6.615,0,0,1,1.841,4.661V39.315h-6.041V25.573q-.153-3.227-2.765-3.227a3.649,3.649,0,0,0-3.276,2.271,12.174,12.174,0,0,0-1.229,5.736v8.963h-5.94V17.566H231.2l.41,3.466a8.473,8.473,0,0,1,2.867-3.346,7.423,7.423,0,0,1,4.3-1.2A5.882,5.882,0,0,1,243.182,18.283Z"/>
  <path id="Path_116" data-name="Path 116" class="cls-2" d="M39.994,18.605a3.252,3.252,0,0,0-3.325,0l-7.628,4.668L23.86,26.318l-7.627,4.668a3.253,3.253,0,0,1-3.325,0L6.845,27.333A3.524,3.524,0,0,1,5.183,24.39V17.185a3.313,3.313,0,0,1,1.662-2.943L12.81,10.69a3.253,3.253,0,0,1,3.325,0L22.1,14.242a3.525,3.525,0,0,1,1.662,2.943v4.668l5.183-3.146V14.039A3.312,3.312,0,0,0,27.282,11.1L16.233,4.4a3.253,3.253,0,0,0-3.325,0L1.662,11.1A3.313,3.313,0,0,0,0,14.039v13.5a3.313,3.313,0,0,0,1.662,2.943l11.245,6.7a3.253,3.253,0,0,0,3.325,0L23.86,32.61l5.183-3.146L36.67,24.9a3.252,3.252,0,0,1,3.325,0l5.965,3.552a3.525,3.525,0,0,1,1.662,2.943v7.2a3.313,3.313,0,0,1-1.662,2.943l-5.965,3.653a3.252,3.252,0,0,1-3.325,0L30.7,41.641A3.524,3.524,0,0,1,29.042,38.7V34.031L23.86,37.176v4.668a3.313,3.313,0,0,0,1.662,2.943l11.246,6.7a3.253,3.253,0,0,0,3.325,0l11.245-6.7A3.525,3.525,0,0,0,53,41.844v-13.5A3.313,3.313,0,0,0,51.338,25.4Z"/>
</svg>
