<svg id="stars_2" xmlns="http://www.w3.org/2000/svg" xmlns:xlink="http://www.w3.org/1999/xlink" width="87.198" height="68.231" viewBox="0 0 87.198 68.231">
  <defs>
    <style>
      .cls-1 {
        fill: #fff;
      }

      .cls-2 {
        clip-path: url(#clip-path);
      }
    </style>
    <clipPath id="clip-path">
      <rect id="Rectangle_88" data-name="Rectangle 88" class="cls-1" width="27.982" height="32.231" transform="translate(0 36)"/>
    </clipPath>
  </defs>
  <path id="Path_162" data-name="Path 162" class="cls-1" d="M57.6,0c0,18.82-13.225,34.094-29.6,34.094,16.374,0,29.6,15.274,29.6,34.094,0-18.82,13.225-34.094,29.6-34.094C70.824,34.094,57.6,18.82,57.6,0Zm0,52.55A35.268,35.268,0,0,0,41.54,34.094C48.625,30.366,54.293,23.729,57.6,15.638A35.27,35.27,0,0,0,73.658,34.094,35.615,35.615,0,0,0,57.6,52.55Z"/>
  <g id="Group_62" data-name="Group 62" class="cls-2">
    <path id="Path_163" data-name="Path 163" class="cls-1" d="M13.991,36C13.991,44.9,7.74,52.116,0,52.116c7.74,0,13.991,7.22,13.991,16.116,0-8.9,6.251-16.116,13.991-16.116C20.242,52.116,13.991,44.9,13.991,36Zm0,24.84A16.671,16.671,0,0,0,6.4,52.116a17,17,0,0,0,7.591-8.724,16.671,16.671,0,0,0,7.591,8.724A16.834,16.834,0,0,0,13.991,60.84Z"/>
  </g>
</svg>
