<svg id="stars_1" xmlns="http://www.w3.org/2000/svg" xmlns:xlink="http://www.w3.org/1999/xlink" width="76.088" height="84.699" viewBox="0 0 76.088 84.699">
  <defs>
    <style>
      .cls-1 {
        fill: #fff;
      }

      .cls-2 {
        clip-path: url(#clip-path);
      }
    </style>
    <clipPath id="clip-path">
      <rect id="Rectangle_87" data-name="Rectangle 87" class="cls-1" width="33.088" height="38.82" transform="translate(43 45.879)"/>
    </clipPath>
  </defs>
  <path id="Path_160" data-name="Path 160" class="cls-1" d="M35,0C35,22.667,19.362,41.064,0,41.064c19.362,0,35,18.4,35,41.064C35,59.46,50.638,41.064,70,41.064,50.638,41.064,35,22.667,35,0Zm0,63.293c-3.816-9.855-10.612-17.74-18.989-22.229C24.388,36.574,31.09,28.58,35,18.834c3.817,9.855,10.612,17.74,18.989,22.229C45.612,45.553,38.817,53.547,35,63.293Z"/>
  <g id="Group_61" data-name="Group 61" class="cls-2">
    <path id="Path_161" data-name="Path 161" class="cls-1" d="M59.544,45.879c0,10.714-7.392,19.41-16.544,19.41,9.152,0,16.544,8.7,16.544,19.41,0-10.714,7.392-19.41,16.544-19.41C66.936,65.289,59.544,56.593,59.544,45.879Zm0,29.918a19.97,19.97,0,0,0-8.976-10.507,20.361,20.361,0,0,0,8.976-10.507A19.97,19.97,0,0,0,68.52,65.289,20.166,20.166,0,0,0,59.544,75.8Z"/>
  </g>
</svg>
